<?xml version="1.0" encoding="UTF-8"?>
<!DOCTYPE svg PUBLIC "-//W3C//DTD SVG 1.1//EN" "http://www.w3.org/Graphics/SVG/1.1/DTD/svg11.dtd">
<!-- Creator: CorelDRAW -->
<svg xmlns="http://www.w3.org/2000/svg" xml:space="preserve" width="250.441mm" height="243mm" version="1.1" style="shape-rendering:geometricPrecision; text-rendering:geometricPrecision; image-rendering:optimizeQuality; fill-rule:evenodd; clip-rule:evenodd"
viewBox="0 0 25044.1 24300"
 xmlns:xlink="http://www.w3.org/1999/xlink"
 xmlns:xodm="http://www.corel.com/coreldraw/odm/2003">
 <defs>
  <style type="text/css">
   <![CDATA[
    .fil0 {fill:black}
   ]]>
  </style>
 </defs>
 <g id="Слой_x0020_1">
  <metadata id="CorelCorpID_0Corel-Layer"/>
  <g id="_2167566287536">
   <path class="fil0" d="M17639.7 17633.71l0 -3421.52c383.44,0 564.37,-53.92 564.37,105.82l0 3597.88c0,191.51 -123.36,252.09 -246.91,317.47 -184.58,-123.61 -317.46,-289.48 -317.46,-599.65zm-1164.02 -3421.52l599.64 0 0 3738.98c0,52.62 -47.63,117.85 -83.44,163.47 -34.68,44.18 -23.94,28.61 -51.18,54.65l-57.22 48.6c-3.91,3.26 -13.48,9.97 -19.8,15.47 -364.27,-84.87 -353.81,-304.47 -352.77,-740.7l0.51 -2751.83c1.35,-236.54 -35.74,-322.83 -35.74,-528.64zm-7619.05 -4091.7c106.07,71.03 212.76,252.47 308.9,361.29 484.58,548.48 493.96,349.06 945.67,1100.18l523.98 851.68c240.93,395.74 375.77,364.46 373.23,1002.43l-0.34 4127.33c-3.85,669.62 175.16,584.72 388.24,987.42l-2116.87 0.46c-267.67,1.53 -392.46,-35.74 -669.72,-35.74 95.47,-357.56 213.47,-92.37 211.68,-846.52l-0.15 -3280.57c-1.35,-365.08 35.38,-659.53 35.38,-1058.09 0,-797.6 32.01,-1924.61 -33.53,-2682.73 -20.15,-233.15 29.65,-353.01 33.53,-527.14zm5643.74 3668.42c0,154.99 69.69,298.72 175.4,353.7 256.76,133.51 975.25,34.31 1235.53,34.31 66.13,283.85 -37.52,708.25 5.15,1088.32 50.95,453.76 28.83,1818.9 28.9,2369.69 0.08,590.45 228.89,681.88 283.41,915.89 -458.55,0 -917.11,-0.05 -1375.66,0 -475.78,0.04 -846.22,-35.28 -1340.39,-35.28 21.2,-254.67 282.19,-270.8 282.19,-846.56l0.11 -3104.16c1.27,-342.83 -35.42,-584.76 -35.38,-952.27 0.1,-1009.21 -52.1,-623.08 271.42,-1210.06 168.48,-305.69 441.48,-653.8 565.04,-951.71 99.09,-238.93 255.79,-390.93 447.75,-539.91 103.31,-80.19 189.78,-127.18 278.07,-215.76 98.27,-98.59 119.83,-164.98 226.61,-267.21 93.96,-89.96 183.37,-130.86 262.72,-231.11 84.32,-106.52 131.67,-214.02 276.43,-252.67 -37.28,77.69 -45.86,141.43 -88.08,229.38l-358.78 664.14c-41.6,82.47 -68.59,127.02 -103.09,214.38 -246.58,624.34 -451.41,953.28 -706.07,1692.51 -102.15,296.5 -331.28,690.39 -331.28,1044.38zm-10123.45 -3068.78c57.97,-248.84 607.77,-882.38 796.47,-1143.55l539.06 -766.06c677.77,-905.63 863.58,-806.43 2050.71,-806.43 637.01,0 1068.37,579.95 1368.29,1030.29 157.53,236.55 973.48,1180.01 995.02,1438.84 -337.74,-71.53 -245.55,29.96 -645.32,-448.15l-368.07 -407.94c-96.64,-100.43 -293.23,-301.4 -417.24,-361.7 -496.7,-241.49 -403.61,541.75 -403.58,653.42l0 3915.34c0,546.47 -35.28,967.62 -35.28,1516.75l0.49 2328.52c5.95,841.49 -451.72,556.96 -560.88,348.28 -90.72,-173.41 -21.36,-2271.07 -69.61,-2682.19 -26.48,-225.73 33.75,-329.58 28.21,-486.88 -4.69,-133.11 -35.07,-95.46 -23.62,-238.62 40.7,-509.25 25.77,-896.58 25.77,-1420.78 0,-436.29 -478.21,-449.91 -577.33,-189.33 -35.1,92.26 -23.82,216.04 -22.83,329.91l-7.64 4436.8c-32.85,255.88 -89.47,343.11 -274.04,466.71 -386,-89.93 -317.47,-395.24 -317.46,-846.57l1.41 -2329.44c-2.78,-225.13 -52.67,-300.39 -30.65,-558.78 51.28,-601.62 -7.22,-1123.26 -6.07,-1626.72l0.04 -3562.65c-417.47,-279.55 -434.01,-127.64 -911.55,464.11 -173.84,215.42 -619.67,624.09 -843.42,814.43 -92.21,78.44 -130.94,128.83 -290.88,132.39zm14625.36 -599.64l82.06 -63.36c1,-1.12 5.89,-7.36 6.81,-8.62l54.03 -80.39c9.03,-7.57 44.4,-28.45 64.54,-40.01 174.59,-100.19 -146.22,46.19 51.22,-23.27 -31.99,-128.3 -33.69,-42.67 -63.57,-172.2l100.17 34.94c-45.07,-110.72 -16.53,-83.36 -115.83,-168.78 -301.01,-258.92 -735.96,-896.4 -1021.33,-545.14 -134.67,165.77 -127.81,665.06 -71.23,899.56 76.21,315.86 179.27,481.71 290.83,732.1l1050.27 2512.33c50.86,153.59 110.38,243.01 114.21,414.9 -236.87,0 -321.94,34.13 -527.7,36.68l-3881.47 -71.96 1257.82 -3010.25c78.96,-156.38 131.91,-265.73 199.85,-435.07 243.73,-607.53 68,-1780.01 -737.32,-737.32 -187.87,243.25 -394.18,413.67 -606.41,628.16 -175.6,177.48 -385.96,531.41 -642.66,591.52 -78.67,90.66 -66.95,57.94 -182.44,112.12 -103.09,48.37 -232.71,219.22 -271.25,311.33 -69.67,166.49 32.58,256.29 -95.35,610.23 -99.62,275.6 -51.68,153.38 -227.36,224.24l-587.4 729.63c-103.56,234.19 -49.98,3833.43 -48.72,4468.69 0.47,239.15 63.28,457.03 -1.25,842.89 -20.97,125.38 -102.71,202.3 -244.46,214.09 -379.43,-101.31 -282.19,-984.58 -282.19,-1481.48 0,-173.5 29.47,-1196.64 -33.47,-1306.92 -5.2,-9.11 -536.91,-545.84 -567.33,494.48 -21.96,750.73 65.22,1124.09 36.85,1729.97 -15.56,332.28 -87.9,477.54 -317.88,599.23 -278.77,-242.31 -211.68,-422.04 -211.64,-846.56 0.03,-352.7 1.58,-705.78 -0.23,-1058.44 -3.04,-589.41 82.28,-1469.81 29.2,-2112.16 -77.07,-932.55 214.48,-1327.79 -248.73,-1794.82 -361.88,-364.86 -484.67,-412 -744.08,-843.22 -79.06,-131.42 -184.48,-237.02 -129.63,-399.29 170.33,47.36 286.49,40.98 436.05,92.52 139.61,48.1 171.32,91.47 339.96,133.53 -124.15,-292.23 -437.66,-470.05 -528.98,-649.64 -58.59,-115.22 -53.75,-315.88 -111.11,-453.25l-453.5 -710.53c-334.19,-469.34 -876.74,-1321.52 -1277.31,-1650.38 -667.37,-547.9 -1139.21,-432.44 -1827.84,-432.07 -588.09,0.32 -1242.4,312.71 -1571.92,756.12l-486.87 677.16c-164.52,246.84 -301.34,460.03 -474.72,689.29 -174.38,230.59 -305.88,462.51 -463.52,700.51 -243.33,367.37 -445.39,868.39 170.14,1065.45 367.21,117.57 881.71,-337.39 1126.48,-580.12 327.05,-324.32 364.19,-615.39 537.6,-661.7 0,367.2 -35.27,658.75 -35.27,1058.2l-1.21 3316.91c0.3,218.1 37.39,273.3 37.69,491.41l-2.66 2753.97c1.9,194.73 31.38,323.14 90.5,473.88 67.34,171.69 158.06,239.88 193.14,371.24l-2255.38 2.11c-197.5,33.85 -306,299.7 -120.91,469.19 182.64,167.24 1129.23,93.07 1423.91,93.07 258.66,0 517.39,0.54 776.05,-0.04 301.21,-0.69 460.91,37.38 740.23,35.78l4515.46 -35.74c248.99,0 523.71,-14.77 755.63,20.39 305.07,46.25 466.37,-18.61 724.44,-21.8 2027.34,-25.04 4074.11,1.39 6103.7,1.41 273.85,0 486.37,-4.82 710.62,-30.13 467.76,-52.79 2072.84,294.15 1808.93,-369.43 -66.83,-168.06 -304.04,-215.65 -543.55,-201.13 -157.95,9.58 -169.33,35.46 -352.02,37.72 -128.55,1.59 -260.36,-1.4 -389.41,-1.4 -258.67,-0.01 -517.35,-0.15 -776.02,0 -293.94,0.17 -490.9,-35.28 -740.74,-35.28 36.25,-155.6 118.59,-203.46 170.81,-393.56 78.18,-284.59 28.66,-1320.42 39.68,-1688.72 5.74,-191.93 37.87,-291.7 36.66,-527.71l-0.23 -1728.63c313.51,26.09 535.31,51.85 857.06,10.51 741.13,-95.23 625.65,-229.51 346.46,-1072.94 -291.98,-882.07 -733.55,-1778.28 -1067.37,-2601.06 -88.26,-217.53 -217.68,-419.46 -277.25,-675.13 100.57,26.85 99.47,32.5 166.36,115.01 97.35,120.07 21.55,95 173.3,167.18z"/>
   <path class="fil0" d="M2048.87 8356.82l0 13368.6c0,312.77 193.84,651.04 430.47,698.28 50.94,10.16 486.93,35.95 511.95,33.15l2796.56 9.31c783.37,0 1461.01,-35.28 2257.49,-35.28 4573.78,0 9147.56,0 13721.34,0 423.52,0 833.65,65.79 1016.38,-112.36 286.96,-279.78 218.19,-425.5 218.19,-945.84 -0.01,-744.5 -23.42,-1572.57 33.42,-2259.34 29.42,-355.56 5.33,-797.46 -28.27,-1096.78 -38.23,-340.46 -5.15,-5144.7 -5.15,-5744.4l0 -3421.51c0,-445.75 92.25,-881.84 -317.46,-881.84 -319.99,0 -246.92,773.13 -246.92,1128.75l0 9876.54c0,364.46 55.52,2662.41 -27.65,2794.22 -104.1,165 -1019.43,98.19 -1312.74,98.19l-8854.82 36.48c-230.36,-0.32 -339.97,-37.89 -598.2,-36.72l-2222.56 35.62c-511.88,1.9 -1437.24,-94.33 -1925.04,-20.49 -303.22,45.89 -681.28,37.91 -1002.72,20.55 -264.88,-14.3 -627.9,-67.54 -947.28,-30.05l-2897.34 -40.66c-57.02,-244.78 5.86,-769.57 1.41,-1130.16 -2.6,-210.54 -38.19,-315.35 -36.92,-562.73l0.24 -7090.18c0,-304.55 61.43,-606.6 19.96,-867.37 -38.14,-239.87 11.11,-233.42 11.56,-402.42 0.3,-112.82 -33,-242.85 -31.99,-422.86l35.74 -3033.97c0,-575.36 -599.65,-524.21 -599.65,35.27z"/>
   <path class="fil0" d="M18662.62 1831.25l1269.84 0c0,236.38 37.97,2643.08 0,2680.77 -58.19,27.42 23.38,19.21 -52.15,2.88 -174.52,-37.75 -1048.54,-663.18 -1217.69,-708.34l0 -1975.31zm6384.48 6170.47l0 82.84c-26.75,150.86 -193.33,236.99 -211.64,236.99 -240.42,0 -326.5,-66.51 -484.01,-186.19 -485.78,-369.11 -687.55,-452.26 -1124.66,-744.83 -259.06,-173.38 -491.61,-316.26 -747.61,-486.95l-740.67 -493.9c-137.75,-93.27 -265.2,-152.29 -395.54,-239.38 -128.43,-85.81 -246.12,-164.76 -380.55,-254.37 -967.93,-645.24 -1789.08,-1084.36 -2666.7,-1671.92 -141.98,-95.06 -247.04,-171.15 -374.09,-260.83 -553.79,-390.94 -2432.47,-1525.26 -3066.5,-1907.04l-1922.19 -1181.87c-459.97,-278.67 -354.1,-242.82 -815.73,35.3l-1913.16 1190.9c-555.76,370.73 -1482.41,865.71 -1954.17,1185.16l-3041.7 1931.84c-143.78,86.01 -232.91,145.38 -365.68,233.97l-2271.3 1432.39c-255.26,158.55 -490.01,325.32 -740.93,493.64 -255.17,171.17 -495.23,306.29 -754.91,479.66 -153.84,102.7 -610.74,444.42 -790.15,444.42 -150.16,0 -282.19,-132.03 -282.19,-282.19 0,-204.1 145.06,-317.01 281.52,-388.68l791.57 -478.27c146.91,-90.38 252.69,-145.53 394.49,-240.43 270.31,-180.92 515.03,-355.02 787.89,-517.22 263.22,-156.47 523.36,-323.31 777.67,-492.17l5538.28 -3491.69c136.77,-91.73 246.16,-150.8 395.03,-239.9 143.61,-85.97 246.94,-156.92 392.01,-242.91 820.24,-486.25 1613.25,-1037.59 2358.94,-1485.85 861.76,-518.04 707.36,-659.06 1989.62,184.03l2167.39 1359.95c373.25,214.1 704.88,424.22 1077.19,651.2 194.49,118.58 340.6,225.92 537.33,344.51 134.75,81.22 486.74,332.3 539.26,279.78 91.9,-91.9 -3.53,-1464.09 64.15,-1700.26 31.35,-109.38 109.01,-218.46 179.56,-279 191.06,-163.93 880.34,-70.48 1163.7,-70.83 670.52,-0.82 1093.49,-186.94 1093.49,634.9l0 2857.14c0,391.45 -102.55,138.89 726.06,684.88l2991.88 1946.39c112.51,67.09 202.62,117.21 315.36,178.46 337.35,183.29 460.16,342.18 481.69,468.33z"/>
   <path class="fil0" d="M17286.96 5323.31c528.07,0 850.33,462.27 873.39,712.1 33.24,360.03 -431.18,673.63 -732,737.66 -158.94,33.83 -319.69,-78.52 -451.86,-186.9 -719.34,-589.92 -18.09,-1262.86 310.47,-1262.86zm-2821.87 4511.35c75,-44.03 25,3.45 101.99,-71.31 49.93,-48.47 41.72,-50.79 62.04,-84.33 4.18,201.72 33.68,-3.48 165.47,178.92 9.99,13.83 29.13,60.02 44.89,86.18 94.16,-54.77 234.27,-243.56 302.95,-345.6l849.82 -1125.48c178.17,-213.11 463.82,-451.5 784.37,-520.74 67.88,-14.67 1165.35,-7.39 1196.58,-0.47 615.46,136.25 978.12,795.91 1354.37,1256.8 447.71,548.44 754.21,856.41 1169.27,1476.23 -22.8,85.95 -1.14,42.09 -70.37,105.82 86.77,109.63 115.47,106.67 204.58,182.76 69.71,59.52 40.34,16.75 75.63,99.83 3.45,8.1 44.98,152.03 53.14,175.96 151.38,-45.1 522.05,-140.52 429.77,-513.04 -37.22,-150.26 -311.7,-459.63 -405.71,-585.28 -145.19,-194.05 -284.34,-372.19 -427.75,-559.91l-876.72 -1133.86c-275.06,-376.11 -601.51,-738.05 -1027.57,-947.74 -328.34,-161.59 -411.01,-140.23 -882.69,-140.23 189.07,-164.34 1132.36,-325.3 1131.22,-1340.36 -0.78,-700.68 -545.97,-1236.01 -1236.49,-1270.63 -395.39,-19.83 -653.4,67.04 -926.55,309.32 -713.13,632.55 -545.74,1621.99 106.85,2027.34 170.38,105.84 222.94,88.74 395.87,239.05 -962.82,0 -1652.8,970.71 -2082.78,1691.47 -113.15,189.66 -454.01,603.35 -492.18,809.3z"/>
   <path class="fil0" d="M7304.6 6804.79c-149.92,0 -378.7,-122.94 -468.5,-201.69 -691.25,-606.27 277.1,-1692.12 954.93,-1060.75 662.51,617.1 -1.07,1262.44 -486.43,1262.44zm-1269.84 -811.29c0,439.14 60.2,673.7 343.95,996.45 1091.04,1240.96 3160.43,-569.8 1852.7,-1817.43 -236.71,-225.85 -666.46,-413.58 -962.08,-413.58 -576.58,0 -1234.57,550.02 -1234.57,1234.56z"/>
   <path class="fil0" d="M12419.24 9626.66c350.35,0 670.19,273.95 670.19,670.19 0,506.84 -707.13,914.08 -1084.99,450.07 -134.03,-164.58 -264.08,-471.63 -160.95,-706.7 40.92,-93.29 141.04,-219.43 212.61,-282.88 90.59,-80.3 204.49,-130.68 363.14,-130.68zm-1164.02 529.1c0,447.19 84.72,702.8 296.47,973.37 231.94,296.39 546.94,472.84 938.1,472.84 320.8,0 558.27,-256.09 755.89,-408.13 185.43,-142.67 166.82,-108.92 245.55,-354.09 152.96,-476.3 252.16,-979.8 -162.39,-1417.22 -367.92,-388.21 -604.86,-360.24 -980.15,-360.24 -591,0 -1093.47,504.62 -1093.47,1093.47z"/>
   <path class="fil0" d="M11925.41 7263.35zm0 0zm0 0c31.82,47.51 20.02,32.22 64.71,76.38l37.05 33.5c5.45,4.84 13.58,11.4 19.11,16.16 5.54,4.76 13.79,11.18 19.37,15.9 168.54,142.56 329.5,299.01 536.26,184.73l624.47 -507.19c90.59,-75.1 221.79,-184.46 209.61,-341.4 -9.82,-126.57 -128.72,-274.9 -255.81,-312.23 -423.3,-124.34 -473.68,343.58 -725.67,410.87 -36.34,-136.11 -170.93,-243.19 -275.63,-324.5 -410.58,-318.87 -893.07,319.48 -253.47,747.78z"/>
   <path class="fil0" d="M19002.28 10120.49c1.84,7.03 6.98,10.36 8.35,20.14l313.6 341.17c312.16,312.89 386.06,424.2 785.84,660.37 242.08,143.02 288.77,107.06 649.75,107.06 -8.16,-23.93 -49.69,-167.86 -53.14,-175.96 -35.29,-83.08 -5.92,-40.31 -75.63,-99.83 -89.11,-76.09 -117.81,-73.13 -204.58,-182.76l-1128.93 -1023.1 -100.17 -34.94c29.88,129.53 31.58,43.9 63.57,172.2 -197.44,69.46 123.37,-76.92 -51.22,23.27 -20.14,11.56 -55.51,32.44 -64.54,40.01l-54.03 80.39c-0.92,1.26 -5.81,7.5 -6.81,8.62l-82.06 63.36z"/>
   <path class="fil0" d="M14465.09 9834.66c-103.23,13.37 -197.5,241.4 -245.77,322.46 -127.97,214.91 -135.7,220.97 -1.14,421.92 -94.14,404.1 -265.57,226.69 -404.61,512.5 -43.99,90.43 -62.41,130.6 -118.72,198.83 -120.99,146.63 -309.85,276.55 -34.23,250.62 370.52,-34.86 205.51,128.03 169.55,331.24 175.68,-70.86 127.74,51.36 227.36,-224.24 127.93,-353.94 25.68,-443.74 95.35,-610.23 38.54,-92.11 168.16,-262.96 271.25,-311.33 115.49,-54.18 103.77,-21.46 182.44,-112.12 -51.41,-28.67 -37.78,-17.12 -106.2,-35.27 76.19,-143.99 327.14,-479.66 339.11,-634.92 -15.76,-26.16 -34.9,-72.35 -44.89,-86.18 -131.79,-182.4 -161.29,22.8 -165.47,-178.92 -20.32,33.54 -12.11,35.86 -62.04,84.33 -76.99,74.76 -26.99,27.28 -101.99,71.31z"/>
   <path class="fil0" d="M10690.85 23982.91c0,87.88 6.35,103.43 52.13,159.5 123.95,151.78 794.43,141.39 794.43,-124.23 0,-392.46 -274.05,-352.73 -599.65,-352.73 -112.32,0 -246.91,179.73 -246.91,317.46z"/>
   <path class="fil0" d="M2048.87 23700.72c0,649.84 705.47,424.04 705.47,176.37 0,-728.68 -705.47,-474.63 -705.47,-176.37z"/>
   <path class="fil0" d="M22648.51 24124c467.08,0 524.38,-595.34 146.96,-713.57 -118.98,-37.27 -263.51,25.52 -353.22,119.3 -187.82,196.34 -106.24,594.27 206.26,594.27z"/>
   <path class="fil0" d="M12348.69 23947.64c0,117.11 -7.87,197 83.45,269.28 224.38,177.61 657.29,40.46 657.29,-269.28 0,-415.03 -740.74,-433.72 -740.74,0z"/>
   <path class="fil0" d="M13794.9 23912.36c0,541.41 705.47,374.94 705.47,70.55 0,-472.13 -705.47,-460.82 -705.47,-70.55z"/>
   <path class="fil0" d="M9279.91 23947.64c0,409.86 705.47,425.13 705.47,0 0,-450.19 -705.47,-407.67 -705.47,0z"/>
   <path class="fil0" d="M15064.74 23947.64c0,451.8 670.2,363.01 670.2,35.27 0,-471.7 -670.2,-457.32 -670.2,-35.27z"/>
   <path class="fil0" d="M5893.67 24194.55c256.68,0 326.91,-225.46 297.01,-328.35 -37.17,-127.89 -198.31,-271.3 -332.28,-271.3 -506.86,0 -498.43,599.65 35.27,599.65z"/>
   <path class="fil0" d="M7974.8 23947.64c0,396.54 726.95,360.7 690.45,-25.9 -37.38,-396.02 -690.45,-365.68 -690.45,25.9z"/>
   <path class="fil0" d="M3883.09 23841.82c0,411.72 668.78,424.98 776.01,-35.28l-31.06 -39.47c-314.39,-360.43 -744.95,-77.95 -744.95,74.75z"/>
   <path class="fil0" d="M18697.9 23877.09c0,374.48 634.92,478.79 634.92,0 0,-457.46 -634.92,-266.2 -634.92,0z"/>
   <path class="fil0" d="M16652.04 24229.82c139.35,0 282.19,-160.17 282.19,-317.46 0,-291.4 -327.76,-393.81 -523.58,-206.1 -235.47,225.72 4.3,523.56 241.39,523.56z"/>
   <path class="fil0" d="M17816.06 24194.55c414.42,0 332.11,-564.37 35.28,-564.37 -424.65,0 -439.16,564.37 -35.28,564.37z"/>
   <path class="fil0" d="M6775.5 23912.36c0,122.95 159.24,282.19 282.19,282.19 475.55,0 394.05,-529.1 35.27,-529.1 -146.4,0 -317.46,99.11 -317.46,246.91z"/>
   <path class="fil0" d="M12242.87 1831.25c0,421.12 599.65,406.85 599.65,0 0,-265.53 -599.65,-299.84 -599.65,0z"/>
   <path class="fil0" d="M11255.22 11334.37c-168.64,-42.06 -200.35,-85.43 -339.96,-133.53 -149.56,-51.54 -265.72,-45.16 -436.05,-92.52l394.2 381.63c167.25,114.61 320.53,182.56 593.45,182.56 -28.09,-120.58 -60.07,-208.43 -157.39,-298.27l-35.69 -27.62c-3.2,-2.51 -11.81,-9.19 -18.56,-12.25z"/>
   <path class="fil0" d="M21131.76 24159.28c344.73,0 412.58,-564.38 0,-564.38 -213.24,0 -291.31,564.38 0,564.38z"/>
   <path class="fil0" d="M20179.38 24088.73c631.01,-168.49 -168.49,-750.37 -96.36,-262.13 22.28,150.86 66.07,148.72 96.36,262.13z"/>
  </g>
 </g>
</svg>
